<svg id="Capa_1" enable-background="new 0 0 512 512" height="512" viewBox="0 0 512 512" width="512" xmlns="http://www.w3.org/2000/svg"><g><g><path d="m390.775 119.926c-1.385-2.398-3.943-3.876-6.713-3.876h-129.87-129.87c-2.769 0-5.328 1.477-6.713 3.876l-63.253 109.555c-1.004 1.74-.779 3.928.559 5.426l195.605 219.08c1.849 2.071 5.089 2.073 6.94.003l196.002-219.082c1.341-1.499 1.567-3.689.562-5.43z" fill="#c9beb9"/></g><g><path d="m53.778 232.397h133.241l-66.573-115.308c-.579.335-1.116.744-1.593 1.22-.478.476-.898 1.018-1.244 1.617l-63.253 109.555c-.522.905-.704 1.929-.578 2.916z" fill="#f9f6f6"/></g><g><path d="m255.753 455.186c.631-.258 1.219-.65 1.707-1.196l196.003-219.082c1.341-1.499 1.567-3.689.562-5.43l-63.25-109.553c-1.385-2.398-3.944-3.876-6.713-3.876h-49.078l67.173 116.347z" fill="#9e9595"/></g><g><path d="m454.603 232.397c.126-.988-.056-2.013-.578-2.918l-63.25-109.553c-.346-.6-.766-1.142-1.244-1.617-.478-.476-1.014-.885-1.593-1.22l-66.573 115.308z" fill="#f9f6f6"/></g><g><path d="m390.775 119.926c-.346-.6-.766-1.142-1.244-1.617-.478-.476-1.014-.885-1.593-1.22l-26.177 45.34 40.396 69.969h52.446c.126-.988-.056-2.013-.578-2.918z" fill="#eedfda"/></g><g><path d="m294.698 213.383h-81.014l-26.666 19.014 65.25 222.801c1.107.441 2.344.441 3.451-.001l65.645-222.8z" fill="#eedfda"/></g><g><path d="m254.191 116.05-67.172 116.347h134.345z" fill="#f9f6f6"/></g><g><g><path d="m389.652 391.754 3.119 12.742c5.056 20.655 19.41 35.214 38.856 43.818 1.841 1.227 1.841 3.933 0 5.16-19.446 8.603-33.8 23.163-38.856 43.818l-3.119 12.742c-.642 2.622-4.37 2.622-5.012 0l-3.119-12.742c-5.056-20.655-19.41-35.214-38.856-43.818-1.841-1.227-1.841-3.932 0-5.16 19.446-8.603 33.8-23.163 38.856-43.818l3.119-12.742c.642-2.622 4.37-2.622 5.012 0z" fill="#ffc50d"/></g><g><path d="m402.174 448.314c-12.324-5.452-22.592-13.305-29.755-23.577-7.163 10.272-17.431 18.125-29.755 23.577-1.841 1.227-1.841 3.932 0 5.16 12.324 5.452 22.592 13.305 29.755 23.577 7.163-10.272 17.431-18.125 29.755-23.577 1.841-1.227 1.841-3.933 0-5.16z" fill="#ffe541"/></g></g><g><g><path d="m446.049 82.254 1.573 6.424c2.549 10.413 9.786 17.754 19.59 22.091.928.619.928 1.983 0 2.601-9.804 4.338-17.041 11.678-19.59 22.091l-1.573 6.424c-.324 1.322-2.203 1.322-2.527 0l-1.573-6.424c-2.549-10.413-9.786-17.754-19.59-22.091-.928-.619-.928-1.983 0-2.601 9.804-4.338 17.041-11.678 19.59-22.091l1.573-6.424c.324-1.322 2.203-1.322 2.527 0z" fill="#ffc50d"/></g><g><path d="m452.362 110.769c-6.213-2.749-11.39-6.708-15.001-11.887-3.611 5.179-8.788 9.138-15.001 11.887-.928.619-.928 1.983 0 2.601 6.213 2.749 11.39 6.708 15.001 11.887 3.611-5.179 8.788-9.138 15.001-11.887.928-.618.928-1.982 0-2.601z" fill="#ffe541"/></g></g><g><g><path d="m79.023 1.42 2.253 9.202c3.652 14.916 14.018 25.431 28.061 31.644 1.33.886 1.33 2.84 0 3.726-14.044 6.213-24.41 16.728-28.061 31.644l-2.253 9.202c-.464 1.894-3.156 1.894-3.619 0l-2.253-9.202c-3.651-14.915-14.017-25.43-28.061-31.643-1.33-.886-1.33-2.84 0-3.726 14.044-6.213 24.41-16.728 28.061-31.644l2.253-9.202c.463-1.894 3.156-1.894 3.619-.001z" fill="#ffc50d"/></g><g><path d="m88.066 42.267c-8.9-3.938-16.315-9.609-21.488-17.027-5.173 7.418-12.588 13.09-21.488 17.027-1.33.886-1.33 2.84 0 3.726 8.9 3.938 16.315 9.609 21.488 17.027 5.173-7.418 12.588-13.09 21.488-17.027 1.33-.886 1.33-2.84 0-3.726z" fill="#ffe541"/></g></g></g></svg>